<svg width="19" height="18" viewBox="0 0 19 18" fill="none" xmlns="http://www.w3.org/2000/svg">
<path d="M17.1 3.333H16.15V17.5H17.1C18.145 17.5 19 16.65 19 15.611V5.222C19 4.183 18.145 3.333 17.1 3.333ZM0 5.222V15.611C0 16.65 0.855 17.5 1.9 17.5H2.85V3.333H1.9C0.855 3.333 0 4.183 0 5.222ZM12.73 1.357C12.083 1.057 11.05 0.5 9.5 0.5C7.95 0.5 6.917 1.057 6.27 1.357V3.334H4.18V17.5H14.82V3.333H12.73V1.357ZM11.59 3.333H7.41V2.072C7.916 1.855 8.643 1.633 9.5 1.633C10.357 1.633 11.083 1.854 11.59 2.071V3.333Z" fill="#C05719"/>
</svg>
