<svg width="21" height="22" viewBox="0 0 21 22" fill="none" xmlns="http://www.w3.org/2000/svg">
<path opacity="0.993" fill-rule="evenodd" clip-rule="evenodd" d="M9.64648 2C10.2155 2 10.7845 2 11.3535 2C15.0214 2.47588 17.65 4.38083 19.2393 7.71484C19.6391 8.65876 19.8927 9.63596 20 10.6465C20 11.2155 20 11.7845 20 12.3535C19.6204 15.5078 18.0989 17.9384 15.4355 19.6455C14.16 20.4068 12.7869 20.8582 11.3164 21C10.7721 21 10.2279 21 9.68359 21C6.39667 20.6098 3.90414 19.0017 2.20605 16.1758C1.54521 14.9785 1.14319 13.7044 1 12.3535C1 11.7845 1 11.2155 1 10.6465C1.4759 6.97856 3.38085 4.34998 6.71484 2.76074C7.65865 2.36093 8.63588 2.10735 9.64648 2ZM9.7207 5.19141C10.2402 5.19141 10.7598 5.19141 11.2793 5.19141C11.2731 7.20771 11.2793 9.22401 11.2979 11.2402C12.442 12.3844 13.5863 13.5287 14.7305 14.6729C14.3779 15.0254 14.0254 15.3779 13.6729 15.7305C12.3617 14.4193 11.0504 13.1081 9.73926 11.7969C9.7207 9.5951 9.71451 7.39325 9.7207 5.19141Z" fill="#C05719"/>
</svg>
