<svg width="38" height="37" viewBox="0 0 38 37" fill="none" xmlns="http://www.w3.org/2000/svg">
<mask id="path-1-inside-1_113_102" fill="white">
<path d="M0.950195 3C0.950195 1.34315 2.29334 0 3.9502 0H34.9502C36.607 0 37.9502 1.34315 37.9502 3V34C37.9502 35.6569 36.607 37 34.9502 37H3.9502C2.29334 37 0.950195 35.6569 0.950195 34V3Z"/>
</mask>
<path d="M0.950195 3C0.950195 1.34315 2.29334 0 3.9502 0H34.9502C36.607 0 37.9502 1.34315 37.9502 3V34C37.9502 35.6569 36.607 37 34.9502 37H3.9502C2.29334 37 0.950195 35.6569 0.950195 34V3Z" fill="#2D609B"/>
<path d="M0.950195 0H37.9502H0.950195ZM37.9502 34C37.9502 36.2091 36.1593 38 33.9502 38H4.9502C2.74106 38 0.950195 36.2091 0.950195 34C0.950195 35.1046 2.29334 36 3.9502 36H34.9502C36.607 36 37.9502 35.1046 37.9502 34ZM0.950195 37V0V37ZM37.9502 0V37V0Z" fill="#28547F" mask="url(#path-1-inside-1_113_102)"/>
<path d="M17.9854 9.00391C17.3506 9.58984 17.1064 10.3711 17.0088 11.2012V14.2285H15.0557V17.3535H17.0088V26.7285H20.8174V17.3535H23.4541C23.6006 16.3281 23.7471 15.2539 23.8447 14.2285H20.8174V12.0801C20.915 11.6895 21.4033 11.3965 21.7939 11.3965H23.8447V8.07617H20.7197C19.7432 8.07617 18.6689 8.32031 17.9854 9.00391Z" fill="white"/>
</svg>
