<svg width="38" height="37" viewBox="0 0 38 37" fill="none" xmlns="http://www.w3.org/2000/svg">
<mask id="path-1-inside-1_113_105" fill="white">
<path d="M0.950195 3C0.950195 1.34315 2.29334 0 3.9502 0H34.9502C36.607 0 37.9502 1.34315 37.9502 3V34C37.9502 35.6569 36.607 37 34.9502 37H3.9502C2.29334 37 0.950195 35.6569 0.950195 34V3Z"/>
</mask>
<path d="M0.950195 3C0.950195 1.34315 2.29334 0 3.9502 0H34.9502C36.607 0 37.9502 1.34315 37.9502 3V34C37.9502 35.6569 36.607 37 34.9502 37H3.9502C2.29334 37 0.950195 35.6569 0.950195 34V3Z" fill="#007AB8"/>
<path d="M0.950195 0H37.9502H0.950195ZM37.9502 34C37.9502 36.2091 36.1593 38 33.9502 38H4.9502C2.74106 38 0.950195 36.2091 0.950195 34C0.950195 35.1046 2.29334 36 3.9502 36H34.9502C36.607 36 37.9502 35.1046 37.9502 34ZM0.950195 37V0V37ZM37.9502 0V37V0Z" fill="#02668E" mask="url(#path-1-inside-1_113_105)"/>
<path d="M15.0068 10.9082C14.8604 9.88281 14.1768 9.10156 13.1514 9.10156C12.0283 9.10156 11.2471 9.88281 11.2471 10.9082C11.2471 11.9336 12.0283 12.7148 13.1514 12.7148C14.3232 12.7148 15.0068 11.8848 15.0068 10.9082ZM11.3447 25.5566H14.8604V14.1797H11.3447V25.5566ZM16.96 17.793L17.0088 25.752H20.5732V19.1602C20.5732 18.8672 20.5732 18.4766 20.6221 18.2812C20.915 17.5488 21.5498 16.8652 22.5264 16.8652C23.8447 16.8652 24.333 17.8418 24.333 19.3066V25.6055H27.8486V18.8184C27.8486 15.498 26.1396 13.8867 23.7471 13.8867C21.7939 13.8867 20.7197 15.0098 20.2314 15.7422H20.1338L19.9385 14.1797H16.8623C16.8623 15.1562 16.96 16.377 16.96 17.793Z" fill="white"/>
</svg>
