<svg width="38" height="37" viewBox="0 0 38 37" fill="none" xmlns="http://www.w3.org/2000/svg">
<mask id="path-1-inside-1_113_111" fill="white">
<path d="M0.950195 3C0.950195 1.34315 2.29334 0 3.9502 0H34.9502C36.607 0 37.9502 1.34315 37.9502 3V34C37.9502 35.6569 36.607 37 34.9502 37H3.9502C2.29334 37 0.950195 35.6569 0.950195 34V3Z"/>
</mask>
<path d="M0.950195 3C0.950195 1.34315 2.29334 0 3.9502 0H34.9502C36.607 0 37.9502 1.34315 37.9502 3V34C37.9502 35.6569 36.607 37 34.9502 37H3.9502C2.29334 37 0.950195 35.6569 0.950195 34V3Z" fill="#0EC3F3"/>
<path d="M0.950195 0H37.9502H0.950195ZM37.9502 34C37.9502 36.2091 36.1593 38 33.9502 38H4.9502C2.74106 38 0.950195 36.2091 0.950195 34C0.950195 35.1046 2.29334 36 3.9502 36H34.9502C36.607 36 37.9502 35.1046 37.9502 34ZM0.950195 37V0V37ZM37.9502 0V37V0Z" fill="#0EA6C9" mask="url(#path-1-inside-1_113_111)"/>
<path d="M15.6416 25.7031C13.2002 25.7031 10.9053 25.0195 9.19629 23.7988C9.53809 23.8965 9.92871 23.8965 10.2217 23.8965C12.1748 23.8965 13.9814 23.2129 15.4463 22.0898C13.6396 21.9434 11.9307 20.7715 11.4424 19.1113C11.833 19.1602 12.0283 19.1602 12.3213 19.1602C12.7119 19.1602 13.1514 19.1602 13.3955 19.1113C11.4424 18.6719 10.0264 16.9629 10.0264 14.9121V14.8633C10.6123 15.1562 11.2471 15.3516 11.9307 15.3516C10.8564 14.668 10.124 13.3496 10.124 11.8848C10.124 11.0547 10.3682 10.3711 10.7588 9.73633C12.7607 12.2754 15.9834 13.8867 19.4502 14.082C19.4014 13.8379 19.4014 13.4961 19.4014 13.2031C19.4014 10.957 21.208 9.00391 23.5518 9.00391C24.8213 9.00391 25.749 9.49219 26.5791 10.3711C27.5068 10.127 28.3857 9.78516 29.2646 9.29688C28.9717 10.3711 28.3369 11.2012 27.458 11.6895C28.3369 11.5918 29.167 11.25 29.8506 10.957C29.2646 11.7871 28.5322 12.5195 27.7021 13.1055V13.5938C27.7021 19.2578 23.4053 25.7031 15.6416 25.7031Z" fill="white"/>
</svg>
