<svg width="28" height="27" viewBox="0 0 28 27" fill="none" xmlns="http://www.w3.org/2000/svg">
<g clip-path="url(#clip0_6_227)" filter="url(#filter0_d_6_227)">
<path opacity="0.986" fill-rule="evenodd" clip-rule="evenodd" d="M13.668 1.23048C15.3642 1.19005 16.5426 1.94526 17.2032 3.49611C17.6818 5.19861 17.2065 6.55927 15.7774 7.57814C14.4692 8.27271 13.1931 8.2206 11.9493 7.42189C10.734 6.41916 10.3238 5.14962 10.7188 3.6133C11.2326 2.23325 12.2156 1.43897 13.668 1.23048Z" fill="#C05719"/>
<path opacity="0.979" fill-rule="evenodd" clip-rule="evenodd" d="M6.87119 3.73048C8.11427 3.71618 8.90205 4.30212 9.23447 5.48829C9.37033 6.87486 8.76486 7.72771 7.41806 8.04689C6.34055 8.13997 5.56581 7.70376 5.09384 6.73829C4.7262 5.59571 5.03219 4.69075 6.01181 4.02345C6.2883 3.88141 6.57475 3.78375 6.87119 3.73048Z" fill="#C05719"/>
<path opacity="0.979" fill-rule="evenodd" clip-rule="evenodd" d="M20.6212 3.73048C21.8643 3.71618 22.6521 4.30212 22.9845 5.48829C23.1203 6.87486 22.5149 7.72771 21.1681 8.04689C20.0906 8.13997 19.3158 7.70376 18.8438 6.73829C18.4762 5.59571 18.7822 4.69075 19.7618 4.02345C20.0383 3.88141 20.3247 3.78375 20.6212 3.73048Z" fill="#C05719"/>
<path opacity="0.991" fill-rule="evenodd" clip-rule="evenodd" d="M13.5899 9.31641C15.7856 9.09617 17.4718 9.90348 18.6484 11.7383C19.0709 12.5038 19.2793 13.3241 19.2734 14.1992C19.3084 15.3589 19.2954 16.5177 19.2344 17.6758C19.0786 18.2484 18.7075 18.5674 18.1211 18.6328C17.7706 18.6718 17.419 18.6979 17.0664 18.7109C14.6445 18.7203 12.2226 18.7073 9.80079 18.6719C9.09763 18.4765 8.72653 18.0143 8.68751 17.2852C8.66146 16.2175 8.66146 15.1497 8.68751 14.082C8.81134 11.7584 9.97669 10.2415 12.1836 9.53125C12.6522 9.42074 13.121 9.34914 13.5899 9.31641Z" fill="#C05719"/>
<path opacity="0.987" fill-rule="evenodd" clip-rule="evenodd" d="M3.98047 16.582C3.98047 14.9023 3.98047 13.2226 3.98047 11.5429C4.29465 10.298 5.08892 9.57533 6.36328 9.37498C6.92448 9.34189 7.48438 9.35494 8.04297 9.41404C8.50012 9.49451 8.90379 9.6833 9.25391 9.98045C8.14051 11.1278 7.57408 12.5079 7.55469 14.1211C7.52344 15.2288 7.52995 16.3355 7.57422 17.4414C6.67569 17.4479 5.77725 17.4414 4.87891 17.4219C4.41932 17.3072 4.11984 17.0272 3.98047 16.582Z" fill="#C05719"/>
<path opacity="0.987" fill-rule="evenodd" clip-rule="evenodd" d="M23.9805 11.543C23.9805 13.2097 23.9805 14.8763 23.9805 16.543C23.8282 17.0011 23.5157 17.2941 23.043 17.4219C22.1612 17.4542 21.2823 17.4477 20.4062 17.4023C20.4313 16.3107 20.4313 15.217 20.4062 14.1211C20.3916 12.5069 19.8252 11.1266 18.707 9.98047C19.0571 9.68332 19.4608 9.49454 19.918 9.41407C20.6786 9.31524 21.4338 9.34129 22.1836 9.49219C23.1536 9.85633 23.7525 10.5399 23.9805 11.543Z" fill="#C05719"/>
</g>
<defs>
<filter id="filter0_d_6_227" x="0" y="0" width="28" height="28" filterUnits="userSpaceOnUse" color-interpolation-filters="sRGB">
<feFlood flood-opacity="0" result="BackgroundImageFix"/>
<feColorMatrix in="SourceAlpha" type="matrix" values="0 0 0 0 0 0 0 0 0 0 0 0 0 0 0 0 0 0 127 0" result="hardAlpha"/>
<feOffset dy="4"/>
<feGaussianBlur stdDeviation="2"/>
<feComposite in2="hardAlpha" operator="out"/>
<feColorMatrix type="matrix" values="0 0 0 0 0 0 0 0 0 0 0 0 0 0 0 0 0 0 0.25 0"/>
<feBlend mode="normal" in2="BackgroundImageFix" result="effect1_dropShadow_6_227"/>
<feBlend mode="normal" in="SourceGraphic" in2="effect1_dropShadow_6_227" result="shape"/>
</filter>
<clipPath id="clip0_6_227">
<rect width="20" height="20" fill="white" transform="translate(4)"/>
</clipPath>
</defs>
</svg>
